<svg xmlns="http://www.w3.org/2000/svg" xmlns:xlink="http://www.w3.org/1999/xlink" width="1000" height="1000" version="1.1" viewBox="0 0 1000 1000" xml:space="preserve"><desc>Created with Fabric.js 3.5.0</desc><rect width="100%" height="100%" x="0" y="0" fill="rgba(255,255,255,0)"/><g id="871981"><g><g><path style="stroke:none;stroke-width:1;stroke-dasharray:none;stroke-linecap:butt;stroke-dashoffset:0;stroke-linejoin:miter;stroke-miterlimit:4;is-custom-font:none;font-file-url:none;fill:#da3979;fill-rule:nonzero;opacity:1" stroke-linecap="round" d="M 130.714 5.17188 L 127.98 14.3522 V 280.744 L 130.714 283.439 L 255.878 210.347 L 130.714 5.17188 Z" transform="matrix(2.2065 0 0 2.2065 499.996 499.9935) matrix(1 0 0 1 63.929 -61.6945) translate(-191.929, -144.3054)"/></g><g><path style="stroke:none;stroke-width:1;stroke-dasharray:none;stroke-linecap:butt;stroke-dashoffset:0;stroke-linejoin:miter;stroke-miterlimit:4;is-custom-font:none;font-file-url:none;fill:#e781a9;fill-rule:nonzero;opacity:1" stroke-linecap="round" d="M 130.715 5.17188 L 5.55127 210.347 L 130.715 283.44 V 154.142 V 5.17188 Z" transform="matrix(2.2065 0 0 2.2065 499.996 499.9935) matrix(1 0 0 1 -59.8668 -61.694) translate(-68.1331, -144.3059)"/></g><g><path style="stroke:none;stroke-width:1;stroke-dasharray:none;stroke-linecap:butt;stroke-dashoffset:0;stroke-linejoin:miter;stroke-miterlimit:4;is-custom-font:none;font-file-url:none;fill:#da3979;fill-rule:nonzero;opacity:1" stroke-linecap="round" d="M 130.713 306.852 L 129.172 308.708 V 403.602 L 130.713 408.048 L 255.951 233.796 L 130.713 306.852 Z" transform="matrix(2.2065 0 0 2.2065 499.996 499.9935) matrix(1 0 0 1 64.5615 114.922) translate(-192.5615, -320.922)"/></g><g><path style="stroke:none;stroke-width:1;stroke-dasharray:none;stroke-linecap:butt;stroke-dashoffset:0;stroke-linejoin:miter;stroke-miterlimit:4;is-custom-font:none;font-file-url:none;fill:#e781a9;fill-rule:nonzero;opacity:1" stroke-linecap="round" d="M 130.715 408.047 V 306.852 L 5.55127 233.796 L 130.715 408.047 Z" transform="matrix(2.2065 0 0 2.2065 499.996 499.9935) matrix(1 0 0 1 -59.8668 114.9215) translate(-68.1331, -320.9215)"/></g><g><path style="stroke:none;stroke-width:1;stroke-dasharray:none;stroke-linecap:butt;stroke-dashoffset:0;stroke-linejoin:miter;stroke-miterlimit:4;is-custom-font:none;font-file-url:none;fill:#671334;fill-rule:nonzero;opacity:1" stroke-linecap="round" d="M 130.713 283.438 L 255.874 210.347 L 130.713 154.142 V 283.438 Z" transform="matrix(2.2065 0 0 2.2065 499.996 499.9935) matrix(1 0 0 1 65.2935 12.79) translate(-193.2935, -218.79)"/></g><g><path style="stroke:none;stroke-width:1;stroke-dasharray:none;stroke-linecap:butt;stroke-dashoffset:0;stroke-linejoin:miter;stroke-miterlimit:4;is-custom-font:none;font-file-url:none;fill:#da3979;fill-rule:nonzero;opacity:1" stroke-linecap="round" d="M 5.55127 210.347 L 130.714 283.438 V 154.142 L 5.55127 210.347 Z" transform="matrix(2.2065 0 0 2.2065 499.996 499.9935) matrix(1 0 0 1 -59.8673 12.79) translate(-68.1326, -218.79)"/></g></g></g></svg>